Coordinates
version=1
nRows=10
nColumns=63
inDegrees=yes

Units are S.I. units (second, meters, Newtons, ...)
If the header above contains a line with 'inDegrees', this indicates whether rotational values are in degrees (yes) or radians (no).

endheader
time	pelvis_tilt	pelvis_list	pelvis_rotation	pelvis_tx	pelvis_ty	pelvis_tz	hip_flexion_r	hip_adduction_r	hip_rotation_r	knee_angle_r	knee_angle_r_beta	ankle_angle_r	subtalar_angle_r	mtp_angle_r	hip_flexion_l	hip_adduction_l	hip_rotation_l	knee_angle_l	knee_angle_l_beta	ankle_angle_l	subtalar_angle_l	mtp_angle_l	L5_S1_Flex_Ext	L5_S1_Lat_Bending	L5_S1_axial_rotation	L4_L5_Flex_Ext	L4_L5_Lat_Bending	L4_L5_axial_rotation	L3_L4_Flex_Ext	L3_L4_Lat_Bending	L3_L4_axial_rotation	L2_L3_Flex_Ext	L2_L3_Lat_Bending	L2_L3_axial_rotation	L1_L2_Flex_Ext	L1_L2_Lat_Bending	L1_L2_axial_rotation	L1_T12_Flex_Ext	L1_T12_Lat_Bending	L1_T12_axial_rotation	Abs_r3	Abs_r2	Abs_r1	Abs_t1	Abs_t2	neck_flexion	neck_bending	neck_rotation	arm_flex_r	arm_add_r	arm_rot_r	elbow_flex_r	pro_sup_r	wrist_flex_r	wrist_dev_r	arm_flex_l	arm_add_l	arm_rot_l	elbow_flex_l	pro_sup_l	wrist_flex_l	wrist_dev_l
      3.35000000	    -38.45132601	     10.76977191	    -73.79298131	     -0.10647414	      0.95694437	     -0.96878256	     31.23127250	    -21.97671000	    -26.35408930	     34.46083496	      0.60145503	      1.55019522	     17.04719024	      0.00000000	     43.25172956	    -29.14486485	     37.26437533	     50.63730480	      0.88378769	     18.24865206	    -18.71506592	      0.00000000	     -0.01865223	     -1.17240191	     -0.77839139	     -0.03463905	     -1.55929454	     -0.82704085	     -0.03064374	     -2.85057801	     -0.82704085	     -0.02131763	     -2.85057801	     -0.68109246	     -0.01732046	     -2.39076198	     -0.63244300	     -0.01065788	     -1.81605056	     -0.58379354	     -0.13323098	    -13.26244490	     -4.32917937	      0.00000000	      0.00000000	    -12.84884322	     12.50363314	     -1.50722075	    -23.90292967	    -47.87083781	    -89.41066782	    110.20014543	     89.99559364	      0.00000000	      0.00000000	      5.92384298	    -61.97838527	      3.60736816	     33.63391142	     89.99559364	      0.00000000	      0.00000000
      3.36666667	    -38.42894748	     11.05659142	    -72.02228839	     -0.10357667	      0.95785890	     -0.96035022	     31.21460828	    -22.24260895	    -28.01530852	     35.36286275	      0.61719839	      1.29062970	     18.17724872	      0.00000000	     43.14789401	    -28.37126031	     38.16421177	     49.28846733	      0.86024604	     18.37496121	    -18.58629367	      0.00000000	     -0.01987332	     -1.18195466	     -0.98057502	     -0.03690675	     -1.57199970	     -1.04186096	     -0.03264988	     -2.87380456	     -1.04186096	     -0.02271322	     -2.87380456	     -0.85800314	     -0.01845437	     -2.41024194	     -0.79671720	     -0.01135562	     -1.83084777	     -0.73543126	     -0.14195315	    -13.37050751	     -5.45366408	      0.00000000	      0.00000000	    -14.36840370	     13.58294671	     -2.59217686	    -23.92620155	    -47.51054204	    -89.36030255	    112.01080333	     89.99559364	      0.00000000	      0.00000000	      5.77892778	    -61.62973183	      1.78083935	     33.76247386	     89.99559364	      0.00000000	      0.00000000
      3.38333333	    -38.71941772	     11.48901450	    -71.17024010	     -0.10233021	      0.95855605	     -0.95495075	     32.34139346	    -21.35262126	    -27.96859515	     36.31876093	      0.63388196	      1.03716660	     18.35999087	      0.00000000	     43.29420509	    -28.40234518	     38.56454284	     48.19589192	      0.84117700	     18.61198989	    -18.33933633	      0.00000000	     -0.01977172	     -1.12731428	     -1.10258706	     -0.03671805	     -1.49932799	     -1.17149875	     -0.03248295	     -2.74095194	     -1.17149875	     -0.02259709	     -2.74095194	     -0.96476368	     -0.01836002	     -2.29881928	     -0.89585199	     -0.01129756	     -1.74620982	     -0.82694029	     -0.14122739	    -12.75240461	     -6.13225845	      0.00000000	      0.00000000	    -14.33303842	     13.57550341	     -2.54427208	    -23.17685539	    -47.84169946	    -89.09796386	    113.59639543	     89.99559364	      0.00000000	      0.00000000	      5.48228153	    -61.46655969	      1.46374689	     34.24693085	     89.99559364	      0.00000000	      0.00000000
      3.40000000	    -39.33971501	     12.07659166	    -69.86603417	     -0.10135031	      0.95810562	     -0.95280070	     33.76247812	    -20.27690233	    -28.77778062	     37.17919811	      0.64889942	      1.32840859	     18.56660476	      0.00000000	     44.53524861	    -28.33356854	     39.16604731	     47.45369263	      0.82822318	     18.81399253	    -17.67528530	      0.00000000	     -0.01587274	     -1.02024451	     -1.39612462	     -0.02947726	     -1.35692520	     -1.48338240	     -0.02607732	     -2.48062250	     -1.48338240	     -0.01814095	     -2.48062250	     -1.22160904	     -0.01473942	     -2.08048260	     -1.13435125	     -0.00906968	     -1.58035874	     -1.04709346	     -0.11337737	    -11.54120993	     -7.76482627	      0.00000000	      0.00000000	    -14.09692256	     12.64606488	     -1.15401571	    -21.38811203	    -48.90349747	    -88.02522033	    114.80180128	     89.99559364	      0.00000000	      0.00000000	      3.09218729	    -60.33582228	     -4.81979183	     36.37131490	     89.99559364	      0.00000000	      0.00000000
      3.41666667	    -39.77436526	     12.71821636	    -68.58658006	     -0.10108385	      0.95786004	     -0.95265290	     35.46903416	    -19.04330049	    -29.39066732	     37.81311414	      0.65996334	      2.91177338	     18.54217848	      0.00000000	     45.85664732	    -28.09021942	     39.42823246	     46.71305702	      0.81529665	     18.73370278	    -16.94138736	      0.00000000	     -0.01363569	     -0.93736465	     -1.61353184	     -0.02532284	     -1.24669499	     -1.71437758	     -0.02240207	     -2.27910842	     -1.71437758	     -0.01558423	     -2.27910842	     -1.41184036	     -0.01266210	     -1.91147400	     -1.31099462	     -0.00779143	     -1.45197785	     -1.21014888	     -0.09739836	    -10.60365642	     -8.97398001	      0.00000000	      0.00000000	    -14.02831080	     12.48411794	     -1.05709709	    -19.93398398	    -49.69379400	    -86.96079825	    115.86533326	     89.99559364	      0.00000000	      0.00000000	      3.70692769	    -60.03332327	     -5.17486519	     37.63942154	     89.99559364	      0.00000000	      0.00000000
      3.43333333	    -40.09782732	     13.35687404	    -67.40978307	     -0.10091673	      0.95772419	     -0.95293760	     37.23693246	    -17.63719308	    -30.35717938	     38.04996591	      0.66409719	      5.42156684	     18.47028733	      0.00000000	     46.98683320	    -27.75968601	     39.52239532	     45.97075858	      0.80234110	     18.50387694	    -16.36805252	      0.00000000	     -0.01274030	     -0.86389491	     -1.76243147	     -0.02366000	     -1.14898023	     -1.87258343	     -0.02093103	     -2.10047409	     -1.87258343	     -0.01456088	     -2.10047409	     -1.54212753	     -0.01183064	     -1.76165450	     -1.43197557	     -0.00727980	     -1.33817322	     -1.32182360	     -0.09100266	     -9.77255201	     -9.80211509	      0.00000000	      0.00000000	    -14.01767658	     12.31858231	     -1.06750609	    -18.88796282	    -50.25462482	    -86.28334644	    116.92720413	     89.99559364	      0.00000000	      0.00000000	      5.10350461	    -59.58664332	     -5.38397022	     38.99692642	     89.99559364	      0.00000000	      0.00000000
      3.45000000	    -40.43137927	     13.95104259	    -66.32904716	     -0.10035698	      0.95769269	     -0.95293906	     38.96299163	    -16.03741653	    -32.07664454	     37.78557904	      0.65948276	      7.77683327	     18.42614569	      0.00000000	     47.92253528	    -27.46374132	     39.56332516	     45.22812626	      0.78937972	     18.29080232	    -15.61474394	      0.00000000	     -0.01115683	     -0.78327547	     -1.82585982	     -0.02071934	     -1.04175637	     -1.93997606	     -0.01832955	     -1.90445597	     -1.93997606	     -0.01275114	     -1.90445597	     -1.59762734	     -0.01036023	     -1.59725533	     -1.48351110	     -0.00637501	     -1.21329370	     -1.36939487	     -0.07969209	     -8.86056873	    -10.15488457	      0.00000000	      0.00000000	    -14.51109776	     11.23363912	     -2.54442685	    -18.72775069	    -50.59061874	    -86.31816464	    117.95203988	     89.99559364	      0.00000000	      0.00000000	      7.46106631	    -59.05215042	     -4.18770866	     39.94688510	     89.99559364	      0.00000000	      0.00000000
      3.46666667	    -40.62173118	     14.55801728	    -65.54471552	     -0.09975497	      0.95815111	     -0.95207906	     40.79259105	    -14.15760641	    -33.77417678	     37.07275838	      0.64704170	      9.22593798	     18.23406172	      0.00000000	     48.37912401	    -27.15105072	     39.53908265	     44.37927390	      0.77456445	     17.79891894	    -15.56007648	      0.00000000	     -0.01099962	     -0.72089781	     -1.78550922	     -0.02042739	     -0.95879408	     -1.89710354	     -0.01807127	     -1.75279093	     -1.89710354	     -0.01257146	     -1.75279093	     -1.56232057	     -0.01021425	     -1.47005481	     -1.45072624	     -0.00628518	     -1.11667070	     -1.33913191	     -0.07856918	     -8.15494017	     -9.93046662	      0.00000000	      0.00000000	    -15.31518975	     11.75634181	     -4.51419057	    -19.38360153	    -50.47978155	    -86.95940362	    118.91096875	     89.99559364	      0.00000000	      0.00000000	     10.53214107	    -58.62985868	     -1.37922560	     40.17560155	     89.99559364	      0.00000000	      0.00000000
      3.48333333	    -40.68466885	     15.16876197	    -65.04299394	     -0.09899094	      0.95902384	     -0.95031269	     42.64922052	    -12.03768190	    -35.59614437	     36.07459686	      0.62962049	      9.53375231	     18.12018227	      0.00000000	     48.44685838	    -26.82982621	     39.48651475	     43.45202063	      0.75838083	     16.86851695	    -15.87368972	      0.00000000	     -0.01432345	     -0.66613285	     -1.69274352	     -0.02660008	     -0.88595669	     -1.79853999	     -0.02353200	     -1.61963540	     -1.79853999	     -0.01637027	     -1.61963540	     -1.48115058	     -0.01330076	     -1.35837810	     -1.37535411	     -0.00818442	     -1.03183978	     -1.26955764	     -0.10231097	     -7.53542799	     -9.41453162	      0.00000000	      0.00000000	    -16.09218607	     12.33736760	     -5.78735806	    -20.49547782	    -50.22365159	    -87.58391841	    119.67675753	     89.99559364	      0.00000000	      0.00000000	     13.16209716	    -57.71884855	      0.07509764	     39.53866377	     89.99559364	      0.00000000	      0.00000000
      3.50000000	    -40.40214372	     15.84929912	    -64.53539695	     -0.09824416	      0.96020615	     -0.94760693	     44.62240635	     -9.99480366	    -36.89301503	     35.07175196	      0.61211755	      8.90197145	     17.80379180	      0.00000000	     48.18445763	    -26.23192284	     39.31546112	     42.29028327	      0.73810468	     16.00256693	    -16.03797215	      0.00000000	     -0.01775165	     -0.65988945	     -1.60928744	     -0.03296659	     -0.87765297	     -1.70986791	     -0.02916419	     -1.60445522	     -1.70986791	     -0.02028836	     -1.60445522	     -1.40812651	     -0.01648418	     -1.34564657	     -1.30754605	     -0.01014329	     -1.02216876	     -1.20696558	     -0.12679828	     -7.46480147	     -8.95037396	      0.00000000	      0.00000000	    -17.25532398	     13.35586011	     -8.72646479	    -21.60384956	    -49.45622799	    -87.96800850	    120.17766967	     89.99559364	      0.00000000	      0.00000000	     16.15783447	    -57.52565959	      4.66749987	     37.69891095	     89.99559364	      0.00000000	      0.00000000
